<svg width="72" height="72" viewBox="0 0 72 72" fill="none" xmlns="http://www.w3.org/2000/svg">
<path d="M26.1598 9.90229C26.1586 9.16607 26.2391 8.432 26.3997 7.71351C26.8868 5.52909 28.1026 3.57538 29.8472 2.17355C31.5919 0.771718 33.7616 0.00519996 35.9996 0L9.85433 0C8.55732 0.00251831 7.27352 0.260557 6.07626 0.759376C4.879 1.25819 3.79176 1.98802 2.87664 2.90715C1.96152 3.82628 1.23646 4.9167 0.742884 6.11613C0.249308 7.31556 -0.00311307 8.60048 4.20605e-05 9.89749C-0.00374478 11.1949 0.24821 12.4803 0.741503 13.6803C1.2348 14.8803 1.95976 15.9713 2.87494 16.8909C3.79012 17.8106 4.87758 18.5408 6.07515 19.0399C7.27272 19.5391 8.55692 19.7973 9.85433 19.7998H35.9996C33.3827 19.7909 30.8763 18.7434 29.0313 16.8876C27.1862 15.0317 26.1534 12.5192 26.1598 9.90229Z" fill="#5746DB"/>
<path d="M62.1455 0H36.0002C33.7622 0.00519996 31.5925 0.771718 29.8478 2.17355C28.1032 3.57538 26.8874 5.52909 26.4003 7.71351C26.069 9.15848 26.0671 10.6595 26.3948 12.1053C26.7225 13.5511 27.3715 14.9046 28.2935 16.0654C29.2155 17.2263 30.387 18.1647 31.7211 18.8112C33.0552 19.4576 34.5177 19.7955 36.0002 19.7998H62.1311C63.4294 19.7992 64.7147 19.5425 65.9136 19.0445C67.1125 18.5466 68.2015 17.817 69.1181 16.8977C70.0348 15.9784 70.7611 14.8873 71.2556 13.687C71.7501 12.4866 72.003 11.2005 71.9998 9.90229C72.0036 8.60488 71.7517 7.31944 71.2584 6.11946C70.7651 4.91948 70.0401 3.82848 69.1249 2.90884C68.2097 1.9892 67.1223 1.25895 65.9247 0.759833C64.7271 0.260715 63.4429 0.00251741 62.1455 0Z" fill="#7767F6"/>
<path d="M34.3916 36C34.3891 34.7028 34.6421 33.4178 35.1362 32.2183C35.6303 31.0189 36.3558 29.9285 37.2713 29.0094C38.1868 28.0903 39.2744 27.3606 40.4719 26.8618C41.6695 26.3631 42.9535 26.1051 44.2507 26.1025H9.74871C8.46597 26.1051 7.19629 26.3602 6.01216 26.8534C4.82803 27.3466 3.75264 28.0682 2.84739 28.9771C1.94214 29.8859 1.22476 30.9641 0.736203 32.1502C0.247651 33.3362 -0.00250492 34.6069 1.89083e-05 35.8896V36.264C0.0228299 38.8323 1.06075 41.2873 2.8872 43.0931C4.71365 44.8989 7.18031 45.9088 9.74871 45.9023H44.2507C41.6304 45.896 39.1199 44.8493 37.271 42.9924C35.4222 41.1355 34.3865 38.6204 34.3916 36Z" fill="#5746DB"/>
<path d="M62.2495 26.0967H44.2497C41.6294 26.103 39.1189 27.1497 37.2701 29.0066C35.4213 30.8635 34.3855 33.3786 34.3906 35.999C34.3881 37.2962 34.6411 38.5812 35.1352 39.7807C35.6293 40.9801 36.3548 42.0705 37.2703 42.9896C38.1858 43.9087 39.2734 44.6384 40.4709 45.1372C41.6685 45.6359 42.9525 45.8939 44.2497 45.8965H62.2495C64.8175 45.9042 67.2842 44.8953 69.1108 43.0903C70.9373 41.2853 71.9754 38.8308 71.9982 36.263V35.8886C72.0033 33.2975 70.9792 30.8105 69.1511 28.9743C67.3231 27.1381 64.8406 26.103 62.2495 26.0967Z" fill="#7767F6"/>
<path d="M62.7022 52.1992H36.0721C34.7749 52.2024 33.4909 52.461 32.2937 52.9603C31.0964 53.4597 30.0092 54.19 29.0941 55.1095C28.1791 56.029 27.4541 57.1197 26.9606 58.3194C26.467 59.5191 26.2146 60.8043 26.2178 62.1015C26.2178 62.2231 26.2178 62.3431 26.2178 62.4615C26.2178 62.5239 26.2178 62.5863 26.2178 62.6487C26.2933 64.0109 26.6484 65.3429 27.2612 66.5618C27.8739 67.7806 28.7311 68.8603 29.7794 69.7334C30.0148 69.9296 30.2599 70.1138 30.5138 70.2854C30.701 70.415 30.893 70.5398 31.0945 70.655C31.4645 70.8708 31.8477 71.0632 32.2417 71.231C33.4463 71.7393 34.7407 72.0004 36.0481 71.999C48.7104 71.999 59.2654 65.3367 64.9342 57.6424C65.1454 57.3544 65.3518 57.0664 65.5582 56.7736C65.7666 56.3408 65.8749 55.8667 65.875 55.3864C65.875 54.5436 65.5412 53.7351 64.9466 53.1378C64.352 52.5405 63.545 52.203 62.7022 52.1992Z" fill="#7767F6"/>
<path d="M31.1176 70.6551C30.916 70.5399 30.724 70.4151 30.5368 70.2855C30.2829 70.1139 30.0378 69.9296 29.8024 69.7335C28.7542 68.8603 27.897 67.7807 27.2842 66.5618C26.6715 65.3429 26.3163 64.0109 26.2408 62.6488C26.2408 62.5864 26.2408 62.524 26.2408 62.4616C26.2408 62.3992 26.2408 62.2216 26.2408 62.1016C26.2377 60.8043 26.4901 59.5192 26.9836 58.3195C27.4771 57.1198 28.2021 56.029 29.1171 55.1095C30.0322 54.19 31.1194 53.4597 32.3167 52.9604C33.514 52.461 34.7979 52.2024 36.0951 52.1993L9.72421 52.0889H9.35942C8.54356 52.1307 7.77491 52.4842 7.21218 53.0764C6.64945 53.6686 6.33561 54.4543 6.33545 55.2712C6.33571 55.8417 6.48815 56.4017 6.77704 56.8936L7.13704 57.3736C10.4553 61.9131 14.7993 65.6041 19.8151 68.1457C24.8308 70.6874 30.3762 72.0077 35.9991 71.999H36.0519C34.7445 72.0005 33.4501 71.7393 32.2456 71.2311C31.858 71.0625 31.4813 70.8701 31.1176 70.6551Z" fill="#5746DB"/>
</svg>
